<svg width="224" height="134" viewBox="0 0 224 134" fill="none" xmlns="http://www.w3.org/2000/svg">
<path d="M88.9084 46.7688L88.5606 48.6825C88.1318 48.6191 87.7261 48.5846 87.332 48.5846C85.8889 48.5846 84.6545 49.0284 83.6403 49.9103C82.6203 50.7922 82.1161 52.3255 82.1161 54.5159V56.8677H88.2709L87.332 58.9716H82.1103V81.4116H79.8906V54.5159C79.8906 52.8846 80.1688 51.4782 80.731 50.3023C81.2873 49.1264 81.9944 48.2963 82.8463 47.8006C84.2604 46.9821 85.7035 46.5786 87.1813 46.5786C87.7724 46.5786 88.3462 46.642 88.9084 46.7746V46.7688Z" fill="black"/>
<path d="M93.4409 47.1091H95.6606V81.4061H93.4409V47.1091Z" fill="black"/>
<path d="M101.42 56.8628H103.535V73.2792C103.535 75.435 104.132 77.0951 105.332 78.2537C106.531 79.4123 108.224 79.9945 110.409 79.9945C112.593 79.9945 114.355 79.4123 115.706 78.2537C117.05 77.0951 117.722 75.435 117.722 73.2792V63.4801C117.722 60.2464 118.151 58.2347 119.003 57.4507C119.461 57.0242 120.07 56.6841 120.823 56.4189L121.466 57.9407C120.417 58.5286 119.89 59.7679 119.89 61.6644V84.3983C119.89 86.3927 119.496 87.9606 118.708 89.1019C117.92 90.2432 116.592 91.1079 114.72 91.6958L114.129 89.9838C116.558 89.1365 117.775 87.3035 117.775 84.4963V78.467C116.459 80.8188 114.013 81.9947 110.432 81.9947C107.54 81.9947 105.314 81.2223 103.755 79.6659C102.196 78.1154 101.414 75.8212 101.414 72.7835V56.857L101.42 56.8628Z" fill="black"/>
<path d="M141.369 79.6932C138.842 81.2265 136.193 81.9931 133.441 81.9931C127.726 81.9931 124.869 79.6125 124.869 74.8398V64.7928C124.869 62.147 125.698 60.0892 127.355 58.6193C129.013 57.1494 131.204 56.4116 133.933 56.4116C136.663 56.4116 138.784 57.1379 140.314 58.5905C141.838 60.0431 142.603 62.0605 142.603 64.6429V70.5224L127.083 71.3582V74.8859C127.083 76.7477 127.692 78.0792 128.903 78.8804C130.12 79.6817 131.499 80.0794 133.041 80.0794C135.405 80.0794 137.886 79.3762 140.476 77.9755L141.363 79.6874L141.369 79.6932ZM127.083 64.7985V69.2081L140.384 68.5222V64.4066C140.384 62.2162 139.711 60.6598 138.367 59.726C137.022 58.7922 135.452 58.3311 133.661 58.3311C131.87 58.3311 130.328 58.8556 129.03 59.899C127.732 60.9423 127.083 62.5793 127.083 64.7985Z" fill="black"/>
<path d="M147.523 56.8629H149.737L149.639 58.8227C151.25 57.2203 153.417 56.4248 156.141 56.4248C157.26 56.4248 158.488 56.5689 159.833 56.8686L159.242 58.9265C158.222 58.5691 157.196 58.3846 156.164 58.3846C155.133 58.3846 154.09 58.546 153.035 58.8746C150.833 59.4971 149.731 60.575 149.731 62.1083V81.4126H147.518V56.8686L147.523 56.8629Z" fill="black"/>
<path d="M174.618 57.6929L173.83 59.5547C172.584 58.7074 171.036 58.2751 169.199 58.2578C167.362 58.2405 165.85 58.644 164.667 59.4567C163.485 60.2753 162.894 61.3647 162.894 62.7423C162.894 64.12 163.462 65.0999 164.592 65.8031C165.728 66.5063 167.003 67.0712 168.434 67.492C169.86 67.9186 171.291 68.3797 172.717 68.887C174.143 69.3942 175.354 70.1781 176.339 71.2387C177.325 72.2994 177.817 73.7289 177.817 75.5273C177.817 77.3257 177.087 78.8763 175.626 80.179C174.166 81.4875 172.028 82.1388 169.223 82.1388C166.418 82.1388 164.204 81.4702 162.598 80.1329C160.987 78.7956 160.153 77.1413 160.089 75.1815H162.21C162.407 76.7147 163.155 77.9194 164.453 78.7841C165.751 79.6487 167.293 80.081 169.083 80.081C170.874 80.081 172.41 79.6718 173.691 78.859C174.972 78.0405 175.615 76.9395 175.615 75.5504C175.615 74.1612 175.14 73.0602 174.189 72.2417C173.239 71.4232 172.056 70.7949 170.642 70.3568C169.228 69.913 167.82 69.4691 166.406 69.008C164.992 68.5526 163.746 67.8667 162.662 66.9502C161.381 65.8723 160.738 64.5235 160.738 62.9095C160.738 61.2955 161.387 59.7795 162.685 58.3788C163.983 56.9724 166.128 56.2749 169.112 56.2749C170.132 56.2749 171.1 56.396 172.016 56.6438C172.937 56.8859 173.592 57.128 173.986 57.3528L174.624 57.6929H174.618Z" fill="black"/>
<path d="M4.84044 55.9398C6.14441 55.202 7.76714 54.8331 9.70862 54.8331C11.6501 54.8331 13.4293 55.1674 15.052 55.836C18.0483 57.2021 19.5493 59.7499 19.5493 63.4678V81.6827H14.7333V64.8339C14.7333 63.1508 14.3566 61.8538 13.5974 60.9373C12.8382 60.0266 11.9109 59.4963 10.8155 59.3579C10.3925 59.3234 9.96941 59.3061 9.54634 59.3061C7.70919 59.3061 6.13862 59.7096 4.83464 60.5165V81.6769H0.0244141V44.8264H4.84044V55.934V55.9398Z" fill="black"/>
<path d="M28.1847 46.9072C28.1847 47.5931 27.9181 48.2041 27.3908 48.7517C26.8634 49.2935 26.2549 49.5702 25.5652 49.5702C24.8755 49.5702 24.2612 49.2993 23.7106 48.7517C23.1659 48.2099 22.8877 47.5931 22.8877 46.9072C22.8877 46.2212 23.1601 45.616 23.7106 45.0914C24.2554 44.5669 24.8755 44.3018 25.5652 44.3018C26.2549 44.3018 26.8634 44.5669 27.3908 45.0914C27.9181 45.616 28.1847 46.2212 28.1847 46.9072ZM27.866 81.6768H23.05V55.2998H27.866V81.6768Z" fill="black"/>
<path d="M42.9514 92.733L41.7865 88.9978C44.2901 88.6807 45.542 87.1532 45.542 84.4152V80.2593C44.6611 81.6311 42.7775 82.3113 39.903 82.3113C37.0284 82.3113 34.7218 81.4697 32.9948 79.7866C31.2678 78.1035 30.3984 75.6479 30.3984 72.4142V64.5691C30.3984 61.4795 31.3083 59.0874 33.1223 57.3812C34.9421 55.6807 37.266 54.8276 40.1116 54.8276C42.9572 54.8276 44.7943 55.4617 45.6405 56.7241L46.278 55.3003H50.3522V85.0435C50.3522 89.7817 47.8833 92.341 42.9398 92.7272L42.9514 92.733ZM45.5478 70.5696V64.7248C45.5478 63.0416 45.0957 61.7504 44.1974 60.857C43.2991 59.9635 42.0183 59.5139 40.3608 59.5139C38.7033 59.5139 37.4341 59.9866 36.5474 60.9377C35.6665 61.883 35.2261 63.1857 35.2261 64.8343V72.0453C35.2261 73.7976 35.6375 75.1868 36.4721 76.2013C37.3008 77.2215 38.5642 77.7288 40.2565 77.7288C43.7859 77.7288 45.5478 75.3424 45.5478 70.5696Z" fill="black"/>
<path d="M59.0387 55.9403C60.3427 55.2024 61.9654 54.8335 63.9069 54.8335C65.8483 54.8335 67.6275 55.1679 69.2503 55.8365C72.2465 57.2026 73.7475 59.7504 73.7475 63.4683V81.6832H68.9315V64.8344C68.9315 63.1513 68.5548 61.8543 67.7956 60.9378C67.0364 60.0271 66.1091 59.4968 65.0196 59.3584C64.5965 59.3238 64.1735 59.3066 63.7504 59.3066C61.9132 59.3066 60.3427 59.71 59.0387 60.517V81.6774H54.2227V44.8269H59.0387V55.9345V55.9403Z" fill="black"/>
<path d="M148.88 36.9239C185.026 34.941 207.02 47.9335 210.52 1.66431C208.596 30.2259 256.756 138.679 63.959 104.267C255.957 124.862 197.423 35.7537 148.88 36.9239Z" fill="black"/>
<path d="M197.723 17.4298C198.303 23.7704 193.609 29.379 187.234 29.9554C180.859 30.5318 175.22 25.8628 174.64 19.5222C174.061 13.1816 178.755 7.57302 185.13 6.9966C191.505 6.42018 197.144 11.0892 197.723 17.4298Z" fill="black"/>
<path d="M157.063 36.1807C193.209 34.1978 215.203 47.1903 218.703 0.921143C216.779 29.4827 264.939 137.936 72.1421 103.524C264.145 124.119 205.606 35.0106 157.063 36.1807Z" fill="#007481"/>
<path d="M205.901 16.6922C206.48 23.0329 201.786 28.6414 195.405 29.2178C189.03 29.7943 183.397 25.1253 182.812 18.7846C182.232 12.444 186.932 6.83547 193.307 6.25905C199.682 5.68264 205.315 10.3516 205.901 16.6922Z" fill="#007481"/>
<path d="M21.2271 124.691H18.1787V123.1H26.3387V124.691H23.3077V132.962H21.2271V124.691Z" fill="black"/>
<path d="M27.4789 123.1H32.2369C33.3439 123.1 34.1726 123.388 34.7232 123.97C35.2738 124.552 35.5461 125.365 35.5461 126.402C35.5461 127.065 35.3723 127.636 35.0304 128.12C34.6884 128.599 34.2016 128.944 33.5757 129.163C33.7322 129.296 33.8539 129.434 33.9524 129.584C34.0509 129.734 34.1552 129.942 34.2654 130.207L35.465 132.962H33.3091L32.1384 130.311C32.0341 130.074 31.9182 129.913 31.7907 129.826C31.6632 129.74 31.4604 129.694 31.1822 129.694H29.5479V132.956H27.4673V123.094L27.4789 123.1ZM31.698 127.982C32.2601 127.982 32.6948 127.855 32.9904 127.607C33.2859 127.359 33.4366 126.956 33.4366 126.402C33.4366 125.849 33.3033 125.446 33.0367 125.192C32.7701 124.938 32.3644 124.811 31.8197 124.811H29.5537V127.982H31.6922H31.698Z" fill="black"/>
<path d="M39.7839 123.1H42.0615L45.8343 132.962H43.6784L42.7396 130.587H39.0884L38.1669 132.962H35.9937L39.7839 123.1ZM42.4324 128.996L40.9082 125.031L39.4014 128.996H42.4324Z" fill="black"/>
<path d="M46.895 123.1H48.9871L51.8964 129.025L54.8058 123.1H56.8863V132.962H54.8058V126.547L52.4934 131.262H51.2937L48.9697 126.547V132.962H46.8892V123.1H46.895Z" fill="black"/>
<path d="M58.642 123.1H63.29C64.4085 123.1 65.2546 123.411 65.8284 124.033C66.4021 124.656 66.6919 125.48 66.6919 126.5C66.6919 127.163 66.5528 127.751 66.2688 128.264C65.9849 128.777 65.585 129.169 65.0576 129.452C64.536 129.734 63.9217 129.873 63.2262 129.873H60.7168V132.968H58.6362V123.105L58.642 123.1ZM62.7974 128.23C63.3827 128.23 63.829 128.074 64.1361 127.769C64.4433 127.463 64.5998 127.037 64.5998 126.5C64.5998 125.93 64.4549 125.492 64.1709 125.192C63.8811 124.892 63.4523 124.742 62.8785 124.742H60.7226V128.235H62.8032L62.7974 128.23Z" fill="black"/>
<path d="M67.1616 128.074C67.1616 126.299 67.5615 124.996 68.3555 124.177C69.1495 123.353 70.3607 122.944 71.9834 122.944C73.6062 122.944 74.8116 123.353 75.6114 124.177C76.4054 125.002 76.8053 126.299 76.8053 128.074C76.8053 131.434 75.1999 133.112 71.9834 133.112C68.767 133.112 67.1616 131.434 67.1616 128.074ZM74.0292 130.547C74.4697 130.011 74.6899 129.186 74.6899 128.074C74.6899 126.858 74.4755 125.993 74.0408 125.48C73.612 124.967 72.9223 124.708 71.9776 124.708C71.033 124.708 70.3433 124.967 69.9145 125.48C69.4856 125.993 69.2654 126.863 69.2654 128.074C69.2654 129.186 69.4856 130.011 69.9261 130.547C70.3665 131.083 71.0504 131.348 71.9718 131.348C72.8933 131.348 73.5772 131.083 74.0176 130.547H74.0292Z" fill="black"/>
<path d="M78.2471 123.1H80.3276V131.371H85.2074V132.962H78.2471V123.1Z" fill="black"/>
<path d="M86.3447 123.1H88.4253V132.962H86.3447V123.1Z" fill="black"/>
<path d="M90.1807 123.1H91.983L96.6774 129.671V123.1H98.7579V132.962H96.9555L92.2612 126.391V132.962H90.1807V123.1Z" fill="black"/>
<path d="M100.508 123.1H107.619V124.708H102.583V127.232H107.051V128.823H102.583V131.365H107.619V132.956H100.508V123.094V123.1Z" fill="black"/>
<path d="M110.992 129.607H108.836V127.999H110.992V125.9H112.626V127.999H114.782V129.607H112.626V131.659H110.992V129.607Z" fill="black"/>
<path d="M117.31 131.821C116.435 130.956 116 129.751 116 128.201C116 126.547 116.447 125.255 117.333 124.333C118.22 123.411 119.513 122.95 121.205 122.95C122.335 122.95 123.332 123.088 124.189 123.365V125.14C123.39 124.852 122.445 124.714 121.355 124.714C120.196 124.714 119.362 124.996 118.863 125.561C118.359 126.126 118.11 127.008 118.11 128.201C118.11 130.316 119.113 131.371 121.112 131.371C121.802 131.371 122.439 131.267 123.019 131.066V128.766H120.712V127.446H124.775V132.27C124.387 132.513 123.882 132.714 123.268 132.876C122.654 133.031 121.923 133.112 121.083 133.112C119.443 133.112 118.185 132.68 117.31 131.815V131.821Z" fill="black"/>
<path d="M128.778 129.313L125.219 123.094H127.393L129.827 127.549L132.261 123.094H134.417L130.858 129.313V132.956H128.778V129.313Z" fill="black"/>
<path d="M135.321 123.1H137.413L140.323 129.025L143.232 123.1H145.313V132.962H143.232V126.547L140.926 131.262H139.726L137.402 126.547V132.962H135.321V123.1Z" fill="black"/>
<path d="M147.069 123.1H148.871L153.566 129.671V123.1H155.646V132.962H153.844L149.149 126.391V132.962H147.069V123.1Z" fill="black"/>
<path d="M160.879 123.1H163.156L166.929 132.962H164.773L163.834 130.587H160.183L159.262 132.962H157.088L160.879 123.1ZM163.527 128.996L162.003 125.031L160.496 128.996H163.527Z" fill="black"/>
<path d="M167.562 132.576V130.754C168.026 130.939 168.518 131.089 169.04 131.198C169.561 131.314 170.071 131.365 170.564 131.365C171.335 131.365 171.874 131.296 172.187 131.152C172.5 131.008 172.656 130.714 172.656 130.264C172.656 129.97 172.587 129.734 172.442 129.561C172.297 129.388 172.059 129.238 171.735 129.112C171.404 128.985 170.894 128.823 170.193 128.627C169.156 128.339 168.425 127.982 168.008 127.555C167.585 127.129 167.376 126.535 167.376 125.78C167.376 124.869 167.713 124.172 168.379 123.682C169.046 123.192 170.019 122.95 171.288 122.95C171.862 122.95 172.407 122.99 172.929 123.065C173.45 123.14 173.867 123.238 174.198 123.365V125.186C173.357 124.869 172.476 124.714 171.567 124.714C170.865 124.714 170.35 124.788 170.002 124.944C169.66 125.1 169.486 125.376 169.486 125.786C169.486 126.039 169.55 126.247 169.677 126.397C169.805 126.552 170.019 126.685 170.326 126.8C170.628 126.915 171.097 127.06 171.735 127.221C172.882 127.526 173.682 127.924 174.122 128.408C174.563 128.893 174.783 129.515 174.783 130.27C174.783 131.158 174.447 131.855 173.769 132.363C173.091 132.87 172.088 133.124 170.767 133.124C169.445 133.124 168.373 132.945 167.562 132.587V132.576Z" fill="black"/>
<path d="M178.284 124.691H175.235V123.1H183.395V124.691H180.364V132.962H178.284V124.691Z" fill="black"/>
<path d="M184.531 123.1H186.612V132.962H184.531V123.1Z" fill="black"/>
<path d="M189.398 131.786C188.506 130.904 188.06 129.682 188.06 128.12C188.06 126.466 188.494 125.192 189.358 124.293C190.227 123.393 191.502 122.944 193.183 122.944C194.249 122.944 195.234 123.105 196.138 123.434V125.238C195.263 124.881 194.33 124.702 193.333 124.702C192.215 124.702 191.404 124.979 190.911 125.538C190.413 126.097 190.163 126.956 190.163 128.12C190.163 129.215 190.43 130.028 190.957 130.564C191.485 131.1 192.29 131.371 193.368 131.371C194.377 131.371 195.304 131.198 196.156 130.852V132.674C195.24 132.968 194.255 133.118 193.2 133.118C191.56 133.118 190.291 132.674 189.398 131.792V131.786Z" fill="black"/>
<path d="M197.483 132.576V130.754C197.947 130.939 198.44 131.089 198.961 131.198C199.483 131.314 199.993 131.365 200.485 131.365C201.256 131.365 201.795 131.296 202.108 131.152C202.421 131.008 202.578 130.714 202.578 130.264C202.578 129.97 202.508 129.734 202.363 129.561C202.218 129.388 201.981 129.238 201.656 129.112C201.326 128.985 200.816 128.823 200.114 128.627C199.077 128.339 198.347 127.982 197.93 127.555C197.506 127.129 197.298 126.535 197.298 125.78C197.298 124.869 197.634 124.172 198.3 123.682C198.967 123.192 199.941 122.95 201.21 122.95C201.784 122.95 202.328 122.99 202.85 123.065C203.366 123.14 203.789 123.238 204.119 123.365V125.186C203.279 124.869 202.398 124.714 201.488 124.714C200.787 124.714 200.271 124.788 199.923 124.944C199.581 125.1 199.407 125.376 199.407 125.786C199.407 126.039 199.471 126.247 199.599 126.397C199.726 126.552 199.941 126.685 200.248 126.8C200.549 126.915 201.019 127.06 201.656 127.221C202.804 127.526 203.603 127.924 204.044 128.408C204.484 128.893 204.704 129.515 204.704 130.27C204.704 131.158 204.368 131.855 203.69 132.363C203.012 132.87 202.01 133.124 200.688 133.124C199.367 133.124 198.295 132.945 197.483 132.587V132.576Z" fill="black"/>
</svg>
