<svg width="21" height="20" viewBox="0 0 21 20" fill="none" xmlns="http://www.w3.org/2000/svg">
<path d="M8.59945 15.5501L6.82945 17.2701C6.36532 17.7342 5.73582 17.995 5.07945 17.995C4.42307 17.995 3.79357 17.7342 3.32945 17.2701C2.86532 16.806 2.60457 16.1765 2.60457 15.5201C2.60457 14.8637 2.86532 14.2342 3.32945 13.7701L7.86945 9.22009C8.31506 8.77304 8.91547 8.51437 9.54646 8.49762C10.1775 8.48087 10.7907 8.70731 11.2594 9.13009L11.3794 9.23009C11.5691 9.41575 11.8247 9.51846 12.0901 9.51565C12.3554 9.51284 12.6088 9.40472 12.7944 9.21509C12.9801 9.02547 13.0828 8.76985 13.08 8.50449C13.0772 8.23912 12.9691 7.98575 12.7794 7.80009C12.723 7.72712 12.6629 7.65703 12.5994 7.59009C11.7458 6.84741 10.6418 6.45694 9.51101 6.49779C8.38025 6.53864 7.30728 7.00775 6.50945 7.81009L1.90945 12.3601C1.1278 13.2109 0.705066 14.3308 0.72952 15.4858C0.753974 16.6409 1.22373 17.7419 2.04068 18.5589C2.85763 19.3758 3.95861 19.8456 5.11369 19.87C6.26878 19.8945 7.38865 19.4717 8.23945 18.6901L9.96945 17.0001C10.1403 16.8137 10.2342 16.5696 10.2323 16.3168C10.2303 16.064 10.1328 15.8214 9.95916 15.6376C9.78555 15.4539 9.54878 15.3427 9.29651 15.3264C9.04424 15.3102 8.79518 15.3901 8.59945 15.5501ZM19.2894 1.31009C18.4482 0.474102 17.3104 0.00488281 16.1244 0.00488281C14.9385 0.00488281 13.8007 0.474102 12.9594 1.31009L11.2294 3.00009C11.0586 3.18644 10.9647 3.43057 10.9666 3.68336C10.9685 3.93615 11.0661 4.17883 11.2397 4.36258C11.4133 4.54633 11.6501 4.65751 11.9024 4.67375C12.1547 4.68998 12.4037 4.61007 12.5994 4.45009L14.3294 2.73009C14.7936 2.26597 15.4231 2.00522 16.0794 2.00522C16.7358 2.00522 17.3653 2.26597 17.8294 2.73009C18.2936 3.19422 18.5543 3.82372 18.5543 4.48009C18.5543 5.13647 18.2936 5.76596 17.8294 6.23009L13.2894 10.7801C12.8438 11.2272 12.2434 11.4858 11.6124 11.5026C10.9814 11.5193 10.3682 11.2929 9.89945 10.8701L9.77945 10.7701C9.58982 10.5844 9.3342 10.4817 9.06884 10.4845C8.80348 10.4874 8.5501 10.5955 8.36445 10.7851C8.17879 10.9747 8.07608 11.2303 8.07889 11.4957C8.0817 11.7611 8.18982 12.0144 8.37945 12.2001C8.45208 12.2744 8.52887 12.3445 8.60945 12.4101C9.46412 13.1505 10.5677 13.5395 11.6977 13.4987C12.8278 13.4579 13.9004 12.9903 14.6994 12.1901L19.2494 7.64009C20.0908 6.80417 20.5672 5.66932 20.5747 4.48334C20.5822 3.29736 20.1201 2.15659 19.2894 1.31009Z" fill="black"/>
</svg>
