<svg width="20" height="20" viewBox="0 0 20 20" fill="none" xmlns="http://www.w3.org/2000/svg">
<path d="M18.2473 0.000139831H2.15431C1.97341 -0.00250479 1.79379 0.0323873 1.6257 0.102824C1.45761 0.17326 1.30435 0.27786 1.17467 0.410652C1.04499 0.543443 0.94143 0.701824 0.869905 0.87675C0.79838 1.05167 0.76029 1.23972 0.757812 1.43014V18.5701C0.76029 18.7606 0.79838 18.9486 0.869905 19.1235C0.94143 19.2985 1.04499 19.4568 1.17467 19.5896C1.30435 19.7224 1.45761 19.827 1.6257 19.8975C1.79379 19.9679 1.97341 20.0028 2.15431 20.0001H18.2473C18.4282 20.0028 18.6078 19.9679 18.7759 19.8975C18.944 19.827 19.0973 19.7224 19.227 19.5896C19.3566 19.4568 19.4602 19.2985 19.5317 19.1235C19.6032 18.9486 19.6413 18.7606 19.6438 18.5701V1.43014C19.6413 1.23972 19.6032 1.05167 19.5317 0.87675C19.4602 0.701824 19.3566 0.543443 19.227 0.410652C19.0973 0.27786 18.944 0.17326 18.7759 0.102824C18.6078 0.0323873 18.4282 -0.00250479 18.2473 0.000139831V0.000139831ZM6.48631 16.7401H3.63631V7.74014H6.48631V16.7401ZM5.06131 6.48014C4.66826 6.48014 4.29131 6.31578 4.01338 6.02323C3.73545 5.73067 3.57931 5.33388 3.57931 4.92014C3.57931 4.5064 3.73545 4.10961 4.01338 3.81705C4.29131 3.5245 4.66826 3.36014 5.06131 3.36014C5.27002 3.33522 5.48138 3.35699 5.68154 3.42402C5.88171 3.49105 6.06616 3.60183 6.22284 3.7491C6.37951 3.89637 6.50486 4.07682 6.59069 4.27862C6.67652 4.48043 6.72088 4.69904 6.72088 4.92014C6.72088 5.14124 6.67652 5.35985 6.59069 5.56166C6.50486 5.76346 6.37951 5.94391 6.22284 6.09118C6.06616 6.23845 5.88171 6.34923 5.68154 6.41626C5.48138 6.48329 5.27002 6.50506 5.06131 6.48014V6.48014ZM16.7653 16.7401H13.9153V11.9101C13.9153 10.7001 13.5068 9.91014 12.4713 9.91014C12.1508 9.91261 11.8388 10.0184 11.5772 10.2133C11.3156 10.4082 11.1171 10.6828 11.0083 11.0001C10.934 11.2352 10.9018 11.4827 10.9133 11.7301V16.7301H8.06331C8.06331 16.7301 8.06331 8.55014 8.06331 7.73014H10.9133V9.00014C11.1722 8.52725 11.5488 8.13766 12.0024 7.87334C12.4561 7.60903 12.9697 7.47999 13.4878 7.50014C15.3878 7.50014 16.7653 8.79014 16.7653 11.5601V16.7401Z" fill="black"/>
</svg>
