<svg width="160" height="85" viewBox="0 0 160 85" fill="none" xmlns="http://www.w3.org/2000/svg">
<path d="M56.1463 29.7137L55.9294 30.9171C55.662 30.8772 55.4091 30.8555 55.1633 30.8555C54.2636 30.8555 53.4938 31.1345 52.8615 31.6891C52.2255 32.2436 51.9111 33.2077 51.9111 34.585V36.0638H55.7488L55.1633 37.3867H51.9075V51.4967H50.5234V34.585C50.5234 33.5593 50.6969 32.6749 51.0474 31.9355C51.3943 31.1961 51.8352 30.6742 52.3664 30.3625C53.2481 29.8479 54.1479 29.5941 55.0694 29.5941C55.438 29.5941 55.7957 29.634 56.1463 29.7174V29.7137Z" fill="black"/>
<path d="M58.9725 29.9278H60.3566V51.4933H58.9725V29.9278Z" fill="black"/>
<path d="M63.9478 36.0604H65.2668V46.3828C65.2668 47.7384 65.639 48.7822 66.387 49.5107C67.1351 50.2392 68.1902 50.6053 69.5526 50.6053C70.9149 50.6053 72.0135 50.2392 72.8554 49.5107C73.6938 48.7822 74.113 47.7384 74.113 46.3828V40.2212C74.113 38.1879 74.3804 36.923 74.9116 36.4301C75.1971 36.1618 75.5765 35.948 76.0463 35.7813L76.4474 36.7381C75.7933 37.1078 75.4645 37.8871 75.4645 39.0795V53.3744C75.4645 54.6284 75.2188 55.6143 74.7273 56.3319C74.2358 57.0496 73.4083 57.5932 72.2411 57.9629L71.8725 56.8865C73.3866 56.3537 74.1455 55.2011 74.1455 53.436V49.6448C73.3252 51.1236 71.8003 51.863 69.567 51.863C67.7638 51.863 66.3762 51.3773 65.4041 50.3987C64.4321 49.4237 63.9442 47.9812 63.9442 46.0711V36.0567L63.9478 36.0604Z" fill="black"/>
<path d="M88.8574 50.4167C87.2818 51.3808 85.6304 51.8628 83.9139 51.8628C80.3509 51.8628 78.5693 50.3659 78.5693 47.3649V41.0474C78.5693 39.3838 79.0861 38.0899 80.1196 37.1657C81.1531 36.2414 82.519 35.7775 84.2211 35.7775C85.9231 35.7775 87.2457 36.2342 88.1997 37.1475C89.1501 38.0609 89.6271 39.3295 89.6271 40.9532V44.6502L79.9497 45.1757V47.3939C79.9497 48.5646 80.3292 49.4018 81.0844 49.9056C81.8433 50.4094 82.7033 50.6595 83.6646 50.6595C85.1389 50.6595 86.6856 50.2173 88.3009 49.3366L88.8537 50.413L88.8574 50.4167ZM79.9497 41.0511V43.8238L88.243 43.3925V40.8046C88.243 39.4273 87.8239 38.4487 86.9855 37.8616C86.1471 37.2744 85.1678 36.9844 84.0512 36.9844C82.9346 36.9844 81.9734 37.3143 81.1639 37.9703C80.3545 38.6263 79.9497 39.6557 79.9497 41.0511Z" fill="black"/>
<path d="M92.694 36.0603H94.0744L94.013 37.2926C95.0176 36.285 96.3691 35.7848 98.0675 35.7848C98.765 35.7848 99.531 35.8754 100.369 36.0639L100.001 37.3578C99.3648 37.1331 98.7252 37.0171 98.082 37.0171C97.4388 37.0171 96.7883 37.1186 96.1306 37.3252C94.7574 37.7166 94.0708 38.3944 94.0708 39.3585V51.4968H92.6904V36.0639L92.694 36.0603Z" fill="black"/>
<path d="M109.589 36.5822L109.097 37.7529C108.32 37.2201 107.355 36.9483 106.21 36.9374C105.064 36.9266 104.121 37.1803 103.384 37.6913C102.647 38.206 102.278 38.891 102.278 39.7573C102.278 40.6235 102.632 41.2397 103.337 41.6819C104.045 42.124 104.84 42.4792 105.733 42.7438C106.622 43.012 107.514 43.302 108.403 43.6209C109.292 43.9399 110.047 44.4328 110.662 45.0997C111.276 45.7666 111.583 46.6655 111.583 47.7963C111.583 48.9271 111.128 49.9021 110.217 50.7212C109.307 51.544 107.973 51.9536 106.224 51.9536C104.475 51.9536 103.095 51.5331 102.094 50.6922C101.089 49.8514 100.569 48.8112 100.529 47.5788H101.852C101.975 48.5429 102.441 49.3005 103.25 49.8441C104.06 50.3878 105.021 50.6596 106.138 50.6596C107.254 50.6596 108.212 50.4023 109.01 49.8912C109.809 49.3766 110.21 48.6843 110.21 47.8108C110.21 46.9373 109.914 46.245 109.321 45.7304C108.729 45.2157 107.991 44.8206 107.11 44.5452C106.228 44.2661 105.35 43.987 104.468 43.697C103.586 43.4107 102.809 42.9794 102.134 42.4031C101.335 41.7253 100.934 40.8772 100.934 39.8624C100.934 38.8475 101.339 37.8943 102.148 37.0136C102.958 36.1292 104.295 35.6906 106.156 35.6906C106.792 35.6906 107.395 35.7667 107.966 35.9226C108.541 36.0748 108.949 36.227 109.195 36.3684L109.592 36.5822H109.589Z" fill="black"/>
<path d="M3.72742 35.4803C4.54049 35.0164 5.5523 34.7844 6.76287 34.7844C7.97344 34.7844 9.08283 34.9947 10.0946 35.4151C11.9629 36.2741 12.8988 37.8761 12.8988 40.2139V51.6672H9.89589V41.0729C9.89589 40.0145 9.66101 39.199 9.18762 38.6227C8.71424 38.0501 8.13605 37.7166 7.45308 37.6296C7.18928 37.6079 6.92549 37.597 6.66169 37.597C5.51617 37.597 4.53687 37.8507 3.7238 38.3582V51.6635H0.724487V28.4924H3.72742V35.4767V35.4803Z" fill="black"/>
<path d="M18.2833 29.8007C18.2833 30.232 18.1171 30.6162 17.7883 30.9605C17.4594 31.3012 17.08 31.4752 16.65 31.4752C16.2199 31.4752 15.8369 31.3048 15.4936 30.9605C15.1539 30.6198 14.9805 30.232 14.9805 29.8007C14.9805 29.3694 15.1503 28.9888 15.4936 28.659C15.8333 28.3292 16.2199 28.1624 16.65 28.1624C17.08 28.1624 17.4594 28.3292 17.7883 28.659C18.1171 28.9888 18.2833 29.3694 18.2833 29.8007ZM18.0846 51.6634H15.0817V35.0779H18.0846V51.6634Z" fill="black"/>
<path d="M27.4911 58.6155L26.7647 56.2668C28.3258 56.0675 29.1064 55.107 29.1064 53.3854V50.7722C28.5571 51.6348 27.3827 52.0625 25.5903 52.0625C23.7979 52.0625 22.3597 51.5333 21.2828 50.475C20.206 49.4166 19.6639 47.8726 19.6639 45.8393V40.9064C19.6639 38.9637 20.2313 37.4596 21.3623 36.3867C22.497 35.3175 23.9461 34.7811 25.7204 34.7811C27.4947 34.7811 28.6402 35.1798 29.1678 35.9735L29.5653 35.0783H32.1057V53.7805C32.1057 56.7598 30.5663 58.369 27.4839 58.6119L27.4911 58.6155ZM29.11 44.6795V41.0043C29.11 39.9459 28.8281 39.1341 28.268 38.5723C27.7079 38.0105 26.9093 37.7278 25.8758 37.7278C24.8423 37.7278 24.0509 38.025 23.498 38.623C22.9487 39.2174 22.6741 40.0365 22.6741 41.0731V45.6073C22.6741 46.7092 22.9307 47.5827 23.451 48.2206C23.9678 48.8621 24.7556 49.181 25.8107 49.181C28.0114 49.181 29.11 47.6805 29.11 44.6795Z" fill="black"/>
<path d="M37.5223 35.4805C38.3354 35.0165 39.3472 34.7846 40.5578 34.7846C41.7684 34.7846 42.8777 34.9948 43.8896 35.4152C45.7578 36.2742 46.6938 37.8762 46.6938 40.214V51.6673H43.6908V41.073C43.6908 40.0146 43.4559 39.1991 42.9825 38.6229C42.5092 38.0502 41.931 37.7167 41.2516 37.6298C40.9878 37.608 40.724 37.5971 40.4602 37.5971C39.3147 37.5971 38.3354 37.8509 37.5223 38.3583V51.6636H34.5194V28.4925H37.5223V35.4768V35.4805Z" fill="black"/>
<path d="M93.5405 23.5233C116.079 22.2765 129.792 30.446 131.975 1.35254C130.775 19.3117 160.805 87.5058 40.5898 65.8678C160.306 78.818 123.808 22.7876 93.5405 23.5233Z" fill="black"/>
<path d="M123.996 11.2656C124.357 15.2525 121.43 18.7791 117.455 19.1415C113.48 19.504 109.964 16.5681 109.602 12.5812C109.241 8.59434 112.168 5.06775 116.143 4.7053C120.118 4.34286 123.634 7.27867 123.996 11.2656Z" fill="black"/>
<path d="M98.643 23.0558C121.181 21.809 134.895 29.9785 137.078 0.88501C135.878 18.8442 165.907 87.0383 45.6924 65.4003C165.412 78.3505 128.911 22.32 98.643 23.0558Z" fill="#007481"/>
<path d="M129.095 10.8015C129.456 14.7884 126.529 18.3149 122.551 18.6774C118.576 19.0398 115.063 16.104 114.698 12.1171C114.337 8.13023 117.267 4.60363 121.242 4.24119C125.217 3.87874 128.73 6.81455 129.095 10.8015Z" fill="#007481"/>
<path d="M13.9448 78.7094H12.0441V77.7091H17.1321V78.7094H15.2421V83.9105H13.9448V78.7094Z" fill="black"/>
<path d="M17.8434 77.7088H20.8102C21.5004 77.7088 22.0172 77.89 22.3605 78.2561C22.7038 78.6222 22.8736 79.1332 22.8736 79.7856C22.8736 80.2024 22.7652 80.5613 22.552 80.8657C22.3388 81.1665 22.0352 81.384 21.645 81.5217C21.7425 81.6051 21.8184 81.6921 21.8798 81.7863C21.9413 81.8806 22.0063 82.011 22.075 82.1778L22.823 83.9103H21.4787L20.7488 82.243C20.6837 82.0944 20.6115 81.9929 20.532 81.9386C20.4525 81.8842 20.326 81.8552 20.1525 81.8552H19.1335V83.9066H17.8362V77.7052L17.8434 77.7088ZM20.4741 80.7787C20.8247 80.7787 21.0957 80.699 21.28 80.5431C21.4643 80.3873 21.5582 80.1336 21.5582 79.7856C21.5582 79.4377 21.4751 79.184 21.3089 79.0245C21.1427 78.865 20.8897 78.7853 20.55 78.7853H19.1371V80.7787H20.4705H20.4741Z" fill="black"/>
<path d="M25.516 77.7091H26.9362L29.2887 83.9105H27.9444L27.359 82.4173H25.0824L24.5078 83.9105H23.1527L25.516 77.7091ZM27.1675 81.4169L26.2171 78.9233L25.2775 81.4169H27.1675Z" fill="black"/>
<path d="M29.9492 77.7091H31.2537L33.0677 81.435L34.8818 77.7091H36.1791V83.9105H34.8818V79.8765L33.4399 82.8413H32.6919L31.2429 79.8765V83.9105H29.9456V77.7091H29.9492Z" fill="black"/>
<path d="M37.2744 77.7091H40.1725C40.8699 77.7091 41.3975 77.9048 41.7553 78.2963C42.113 78.6877 42.2937 79.206 42.2937 79.8475C42.2937 80.2643 42.207 80.634 42.0299 80.9566C41.8528 81.2792 41.6035 81.5256 41.2747 81.7032C40.9494 81.8808 40.5664 81.9678 40.1328 81.9678H38.568V83.9142H37.2708V77.7127L37.2744 77.7091ZM39.8653 80.9349C40.2303 80.9349 40.5086 80.837 40.7001 80.6449C40.8916 80.4528 40.9892 80.1846 40.9892 79.8475C40.9892 79.4887 40.8988 79.2132 40.7218 79.0248C40.5411 78.8363 40.2737 78.7421 39.9159 78.7421H38.5717V80.9385H39.869L39.8653 80.9349Z" fill="black"/>
<path d="M42.5862 80.837C42.5862 79.7206 42.8355 78.9015 43.3306 78.3868C43.8257 77.8685 44.5809 77.6112 45.5927 77.6112C46.6045 77.6112 47.3562 77.8685 47.8549 78.3868C48.3499 78.9051 48.5993 79.7206 48.5993 80.837C48.5993 82.95 47.5983 84.0047 45.5927 84.0047C43.5872 84.0047 42.5862 82.95 42.5862 80.837ZM46.8683 82.3919C47.143 82.0548 47.2803 81.5365 47.2803 80.837C47.2803 80.0722 47.1466 79.5285 46.8756 79.206C46.6082 78.8834 46.1781 78.7203 45.5891 78.7203C45.0001 78.7203 44.5701 78.8834 44.3027 79.206C44.0352 79.5285 43.8979 80.0758 43.8979 80.837C43.8979 81.5365 44.0353 82.0548 44.3099 82.3919C44.5845 82.7289 45.0109 82.8957 45.5855 82.8957C46.1601 82.8957 46.5865 82.7289 46.8611 82.3919H46.8683Z" fill="black"/>
<path d="M49.4993 77.7091H50.7966V82.9101H53.8392V83.9105H49.4993V77.7091Z" fill="black"/>
<path d="M54.5479 77.7091H55.8451V83.9105H54.5479V77.7091Z" fill="black"/>
<path d="M56.9395 77.7091H58.0633L60.9903 81.841V77.7091H62.2876V83.9105H61.1638L58.2367 79.7787V83.9105H56.9395V77.7091Z" fill="black"/>
<path d="M63.3789 77.7088H67.8128V78.72H64.6726V80.3076H67.4587V81.3079H64.6726V82.9063H67.8128V83.9066H63.3789V77.7052V77.7088Z" fill="black"/>
<path d="M69.9158 81.801H68.5715V80.7898H69.9158V79.4705H70.9349V80.7898H72.2791V81.801H70.9349V83.0914H69.9158V81.801Z" fill="black"/>
<path d="M73.855 83.1926C73.3094 82.6489 73.0383 81.8914 73.0383 80.9164C73.0383 79.8762 73.3166 79.0644 73.8695 78.4844C74.4223 77.9045 75.2282 77.6146 76.2834 77.6146C76.988 77.6146 77.6096 77.7016 78.1444 77.8755V78.9919C77.6457 78.8106 77.0567 78.7237 76.3773 78.7237C75.6546 78.7237 75.1342 78.9013 74.8235 79.2564C74.5091 79.6116 74.3537 80.1662 74.3537 80.9164C74.3537 82.2466 74.9789 82.9099 76.2256 82.9099C76.6556 82.9099 77.0531 82.8447 77.4144 82.7178V81.2716H75.9762V80.4416H78.5094V83.4753C78.2673 83.6275 77.9529 83.7544 77.5698 83.8559C77.1868 83.9537 76.7315 84.0045 76.2075 84.0045C75.1848 84.0045 74.4007 83.7327 73.855 83.189V83.1926Z" fill="black"/>
<path d="M81.0061 81.616L78.7874 77.7052H80.1425L81.6602 80.5069L83.1779 77.7052H84.5222L82.3034 81.616V83.9066H81.0061V81.616Z" fill="black"/>
<path d="M85.0861 77.7091H86.3906L88.2046 81.435L90.0187 77.7091H91.316V83.9105H90.0187V79.8765L88.5805 82.8413H87.8324L86.3834 79.8765V83.9105H85.0861V77.7091Z" fill="black"/>
<path d="M92.4114 77.7091H93.5352L96.4623 81.8409V77.7091H97.7596V83.9105H96.6357L93.7087 79.7786V83.9105H92.4114V77.7091Z" fill="black"/>
<path d="M101.022 77.7091H102.442L104.794 83.9105H103.45L102.865 82.4173H100.588L100.014 83.9105H98.6584L101.022 77.7091ZM102.673 81.4169L101.723 78.9233L100.783 81.4169H102.673Z" fill="black"/>
<path d="M105.189 83.6674V82.5221C105.478 82.638 105.785 82.7323 106.111 82.8011C106.436 82.8736 106.754 82.9063 107.061 82.9063C107.542 82.9063 107.878 82.8628 108.073 82.7721C108.268 82.6815 108.366 82.4967 108.366 82.214C108.366 82.0291 108.322 81.8805 108.232 81.7718C108.141 81.6631 107.993 81.5688 107.791 81.4891C107.585 81.4094 107.267 81.3079 106.83 81.1846C106.183 81.0034 105.728 80.7787 105.467 80.5105C105.204 80.2423 105.073 79.869 105.073 79.3942C105.073 78.8215 105.283 78.3829 105.699 78.0749C106.114 77.7668 106.721 77.6145 107.513 77.6145C107.87 77.6145 108.21 77.6399 108.535 77.687C108.861 77.7342 109.121 77.7958 109.327 77.8755V79.0208C108.803 78.8215 108.253 78.7236 107.686 78.7236C107.249 78.7236 106.927 78.7708 106.71 78.8686C106.497 78.9665 106.389 79.1404 106.389 79.3978C106.389 79.5573 106.429 79.6877 106.508 79.782C106.588 79.8798 106.721 79.9632 106.913 80.0357C107.101 80.1082 107.393 80.1988 107.791 80.3003C108.506 80.4924 109.005 80.7425 109.28 81.0469C109.554 81.3514 109.692 81.7428 109.692 82.2176C109.692 82.7758 109.482 83.2143 109.059 83.5333C108.637 83.8522 108.011 84.0117 107.187 84.0117C106.364 84.0117 105.695 83.8994 105.189 83.6746V83.6674Z" fill="black"/>
<path d="M111.875 78.7094H109.974V77.7091H115.062V78.7094H113.172V83.9105H111.875V78.7094Z" fill="black"/>
<path d="M115.77 77.7091H117.067V83.9105H115.77V77.7091Z" fill="black"/>
<path d="M118.805 83.1711C118.248 82.6165 117.97 81.8481 117.97 80.8659C117.97 79.8257 118.241 79.0247 118.779 78.4593C119.321 77.8939 120.116 77.6112 121.164 77.6112C121.829 77.6112 122.444 77.7126 123.007 77.9192V79.0537C122.462 78.829 121.88 78.7166 121.258 78.7166C120.561 78.7166 120.055 78.8906 119.748 79.2422C119.437 79.5937 119.282 80.1338 119.282 80.8659C119.282 81.5546 119.448 82.0656 119.777 82.4027C120.106 82.7398 120.608 82.9101 121.28 82.9101C121.909 82.9101 122.487 82.8014 123.018 82.5839V83.7292C122.447 83.9141 121.833 84.0083 121.175 84.0083C120.153 84.0083 119.361 83.7292 118.805 83.1747V83.1711Z" fill="black"/>
<path d="M123.846 83.6674V82.5221C124.135 82.638 124.442 82.7323 124.768 82.8011C125.093 82.8736 125.411 82.9063 125.718 82.9063C126.199 82.9063 126.535 82.8628 126.73 82.7721C126.925 82.6815 127.022 82.4967 127.022 82.214C127.022 82.0291 126.979 81.8805 126.889 81.7718C126.798 81.6631 126.65 81.5688 126.448 81.4891C126.242 81.4094 125.924 81.3079 125.487 81.1846C124.84 81.0034 124.385 80.7787 124.124 80.5105C123.861 80.2423 123.73 79.869 123.73 79.3942C123.73 78.8215 123.94 78.3829 124.356 78.0749C124.771 77.7668 125.378 77.6145 126.17 77.6145C126.527 77.6145 126.867 77.6399 127.192 77.687C127.514 77.7342 127.778 77.7958 127.984 77.8755V79.0208C127.46 78.8215 126.91 78.7236 126.343 78.7236C125.906 78.7236 125.584 78.7708 125.367 78.8686C125.154 78.9665 125.046 79.1404 125.046 79.3978C125.046 79.5573 125.086 79.6877 125.165 79.782C125.245 79.8798 125.378 79.9632 125.57 80.0357C125.758 80.1082 126.05 80.1988 126.448 80.3003C127.163 80.4924 127.662 80.7425 127.937 81.0469C128.211 81.3514 128.349 81.7428 128.349 82.2176C128.349 82.7758 128.139 83.2143 127.716 83.5333C127.294 83.8522 126.668 84.0117 125.844 84.0117C125.021 84.0117 124.352 83.8994 123.846 83.6746V83.6674Z" fill="black"/>
</svg>
