<svg width="17" height="17" viewBox="0 0 17 17" fill="none" xmlns="http://www.w3.org/2000/svg">
<g clip-path="url(#clip0_394_10227)">
<path fill-rule="evenodd" clip-rule="evenodd" d="M1.95886 2.93066C0.992364 2.93066 0.208862 3.71416 0.208862 4.68066V5.41643C0.208699 5.42545 0.2087 5.43447 0.208862 5.44348V13.1807C0.208862 14.1472 0.992363 14.9307 1.95886 14.9307H14.4589C15.4254 14.9307 16.2089 14.1472 16.2089 13.1807V5.44331C16.2091 5.43442 16.2091 5.42551 16.2089 5.4166V4.68066C16.2089 3.71416 15.4254 2.93066 14.4589 2.93066H1.95886ZM14.7089 5.00095V4.68066C14.7089 4.54259 14.597 4.43066 14.4589 4.43066H1.95886C1.82079 4.43066 1.70886 4.54259 1.70886 4.68066V5.00095L8.20886 8.81129L14.7089 5.00095ZM1.70886 6.73968V13.1807C1.70886 13.3188 1.82079 13.4307 1.95886 13.4307H14.4589C14.597 13.4307 14.7089 13.3188 14.7089 13.1807V6.73968L8.58815 10.3277C8.35393 10.465 8.06379 10.465 7.82957 10.3277L1.70886 6.73968Z" fill="#DB9F05"/>
</g>
<defs>
<clipPath id="clip0_394_10227">
<rect width="16" height="16" fill="white" transform="translate(0.208984 0.930664)"/>
</clipPath>
</defs>
</svg>
