<svg width="19" height="19" viewBox="0 0 19 19" fill="none" xmlns="http://www.w3.org/2000/svg">
<path d="M7.46122 9.70674C8.0447 10.8996 9.01164 11.8622 10.2072 12.4402C10.2946 12.4816 10.3914 12.4996 10.4879 12.4923C10.5844 12.485 10.6774 12.4527 10.7576 12.3986L12.5179 11.2247C12.5958 11.1728 12.6854 11.1411 12.7785 11.1326C12.8717 11.124 12.9656 11.1388 13.0516 11.1757L16.3448 12.5871C16.4567 12.6346 16.5501 12.7172 16.6109 12.8224C16.6718 12.9276 16.6968 13.0498 16.6822 13.1705C16.5781 13.985 16.1807 14.7336 15.5644 15.2762C14.9481 15.8188 14.1551 16.1181 13.334 16.1182C10.7979 16.1182 8.36559 15.1107 6.57228 13.3174C4.77896 11.5241 3.77148 9.0918 3.77148 6.55566C3.77153 5.73454 4.07087 4.94158 4.61346 4.32526C5.15606 3.70895 5.90469 3.31154 6.7192 3.20745C6.83986 3.19285 6.96201 3.21786 7.06722 3.27871C7.17244 3.33956 7.25503 3.43296 7.30256 3.54483L8.71517 6.84093C8.75171 6.92619 8.7666 7.01915 8.75851 7.11156C8.75042 7.20396 8.71961 7.29293 8.66881 7.37054L7.49907 9.15787C7.44583 9.23827 7.41435 9.33111 7.40772 9.42731C7.40109 9.52351 7.41952 9.61979 7.46122 9.70674V9.70674Z" stroke="#DB9F05" stroke-width="1.125" stroke-linecap="round" stroke-linejoin="round"/>
</svg>
