<svg width="18" height="18" viewBox="0 0 18 18" fill="none" xmlns="http://www.w3.org/2000/svg">
<path fill-rule="evenodd" clip-rule="evenodd" d="M8.625 0C8.92336 0 9.20952 0.11853 9.42049 0.329505C9.63147 0.54048 9.75 0.826635 9.75 1.125V7.5H16.125C16.4233 7.5 16.7096 7.61853 16.9205 7.8295C17.1315 8.04048 17.25 8.32664 17.25 8.625C17.25 8.92336 17.1315 9.20952 16.9205 9.42049C16.7096 9.63147 16.4233 9.75 16.125 9.75H9.75V16.125C9.75 16.4233 9.63147 16.7096 9.42049 16.9205C9.20952 17.1315 8.92336 17.25 8.625 17.25C8.32664 17.25 8.04048 17.1315 7.8295 16.9205C7.61853 16.7096 7.5 16.4233 7.5 16.125V9.75H1.125C0.826635 9.75 0.54048 9.63147 0.329505 9.42049C0.11853 9.20952 0 8.92336 0 8.625C0 8.32664 0.11853 8.04048 0.329505 7.8295C0.54048 7.61853 0.826635 7.5 1.125 7.5H7.5V1.125C7.5 0.826635 7.61853 0.54048 7.8295 0.329505C8.04048 0.11853 8.32664 0 8.625 0Z" fill="#DB9F05"/>
</svg>
