<svg width="19" height="19" viewBox="0 0 19 19" fill="none" xmlns="http://www.w3.org/2000/svg">
<g clip-path="url(#clip0_394_10221)">
<path fill-rule="evenodd" clip-rule="evenodd" d="M9.04199 2.61816C5.00341 2.61816 1.72949 5.89208 1.72949 9.93066C1.72949 13.9693 5.00341 17.2432 9.04199 17.2432C13.0806 17.2432 16.3545 13.9693 16.3545 9.93066C16.3545 5.89208 13.0806 2.61816 9.04199 2.61816ZM0.0419922 9.93066C0.0419922 4.9601 4.07143 0.930664 9.04199 0.930664C14.0126 0.930664 18.042 4.9601 18.042 9.93066C18.042 14.9013 14.0126 18.9307 9.04199 18.9307C4.07143 18.9307 0.0419922 14.9013 0.0419922 9.93066ZM10.167 13.3057C10.167 13.927 9.66332 14.4307 9.04199 14.4307C8.42068 14.4307 7.91699 13.927 7.91699 13.3057C7.91699 12.6843 8.42068 12.1807 9.04199 12.1807C9.66332 12.1807 10.167 12.6843 10.167 13.3057ZM7.82792 7.77675C7.91849 7.59559 8.0411 7.44011 8.20923 7.32802C8.37209 7.21946 8.62714 7.11816 9.04199 7.11816C9.35671 7.11816 9.66402 7.21554 9.87168 7.37129C10.0568 7.51014 10.167 7.69202 10.167 7.96191C10.167 8.16061 10.1211 8.2587 10.0802 8.32006C10.0292 8.3966 9.94114 8.48124 9.76926 8.59584C9.68332 8.65313 9.59086 8.7088 9.47797 8.77654L9.47108 8.78068L9.47106 8.78069C9.36564 8.84394 9.24116 8.91863 9.11884 9.00018C8.86883 9.16687 8.57013 9.39867 8.33991 9.74405C8.08146 10.1318 8.18626 10.6556 8.574 10.9141C8.96175 11.1726 9.4856 11.0678 9.74406 10.68C9.79509 10.6034 9.88311 10.5188 10.055 10.4042C10.1409 10.3469 10.2334 10.2912 10.3462 10.2235L10.3532 10.2193L10.3533 10.2193C10.4587 10.1561 10.5831 10.0814 10.7053 9.9999C10.9553 9.83323 11.254 9.60146 11.4843 9.25611C11.7247 8.8956 11.8545 8.46634 11.8545 7.96191C11.8545 7.10681 11.449 6.44494 10.8842 6.02129C10.3418 5.61453 9.66477 5.43066 9.04199 5.43066C8.33185 5.43066 7.74315 5.61062 7.27318 5.92393C6.8085 6.23372 6.50923 6.64074 6.31857 7.02208C6.11016 7.43887 6.2791 7.94569 6.69591 8.15409C7.1127 8.36248 7.61952 8.19354 7.82792 7.77675Z" fill="#DB9F05"/>
</g>
<defs>
<clipPath id="clip0_394_10221">
<rect width="18" height="18" fill="white" transform="translate(0.0419922 0.930664)"/>
</clipPath>
</defs>
</svg>
